<svg xmlns="http://www.w3.org/2000/svg" xmlns:xlink="http://www.w3.org/1999/xlink" width="101.574" height="24.187" viewBox="0 0 101.574 24.187">
  <defs>
    <linearGradient id="linear-gradient" y1="0.5" x2="1" y2="0.5" gradientUnits="objectBoundingBox">
      <stop offset="0" stop-color="#428cf7"/>
      <stop offset="1" stop-color="#025bfe"/>
    </linearGradient>
    <linearGradient id="linear-gradient-3" x1="0" y1="0.5" x2="1" y2="0.5" xlink:href="#linear-gradient"/>
    <linearGradient id="linear-gradient-4" x1="0" y1="0.5" x2="1" y2="0.5" xlink:href="#linear-gradient"/>
  </defs>
  <g id="logo-light" transform="translate(-0.002)">
    <path id="路径_1" data-name="路径 1" d="M334.136.192h-7.069a1.013,1.013,0,0,0-.982.825l-2.853,18.1a.577.577,0,0,0,.571.666h3.614a.658.658,0,0,0,.666-.571l.825-5.135a.968.968,0,0,1,.982-.825h2.219c4.66,0,7.323-2.251,8.02-6.721a5.563,5.563,0,0,0-.887-4.565C338.291.792,336.515.19,334.139.19h0Zm.825,6.593c-.38,2.535-2.314,2.535-4.184,2.535H329.7l.761-4.724a.58.58,0,0,1,.571-.507h.476c1.268,0,2.473,0,3.107.728a2.373,2.373,0,0,1,.349,1.966Z" transform="translate(-272.914 -0.16)" fill="url(#linear-gradient)"/>
    <path id="路径_2" data-name="路径 2" d="M554.136.192h-7.069a1.013,1.013,0,0,0-.982.825l-2.853,18.1a.577.577,0,0,0,.571.666h3.614a.658.658,0,0,0,.666-.571l.825-5.135a.968.968,0,0,1,.982-.825h2.219c4.66,0,7.323-2.251,8.02-6.721a5.562,5.562,0,0,0-.887-4.565C558.291.792,556.515.19,554.139.19h0Zm.825,6.593c-.38,2.535-2.314,2.535-4.184,2.535H549.7l.761-4.724a.58.58,0,0,1,.571-.507h.476c1.268,0,2.473,0,3.107.728a2.374,2.374,0,0,1,.349,1.966Z" transform="translate(-458.673 -0.16)" fill="url(#linear-gradient)"/>
    <path id="路径_3" data-name="路径 3" d="M10.916.2H3.846a1.013,1.013,0,0,0-.982.825L.011,19.124a.577.577,0,0,0,.571.666H3.941a1.013,1.013,0,0,0,.982-.825l.761-4.881a.968.968,0,0,1,.982-.825H8.886c4.66,0,7.323-2.251,8.02-6.721a5.563,5.563,0,0,0-.887-4.565C15.068.8,13.292.2,10.916.2Zm.825,6.593c-.38,2.535-2.314,2.535-4.184,2.535H6.48L7.241,4.6A.58.58,0,0,1,7.812,4.1h.476c1.268,0,2.473,0,3.107.728a2.373,2.373,0,0,1,.349,1.966ZM32,6.7H28.6a.583.583,0,0,0-.571.507l-.159.951-.223-.349c-.728-1.046-2.346-1.426-3.994-1.426a7.769,7.769,0,0,0-7.544,6.783,6.37,6.37,0,0,0,1.268,5.2,5.327,5.327,0,0,0,4.247,1.712,6.4,6.4,0,0,0,4.66-1.933l-.159.951a.577.577,0,0,0,.571.666h3.043a1.013,1.013,0,0,0,.982-.825l1.838-11.57a.573.573,0,0,0-.571-.666h0ZM27.3,13.291a3.77,3.77,0,0,1-3.8,3.233,2.866,2.866,0,0,1-2.282-.92,2.857,2.857,0,0,1-.539-2.377,3.817,3.817,0,0,1,3.773-3.265,2.719,2.719,0,0,1,2.853,3.329h0Z" transform="translate(0 -0.169)" fill="#050505"/>
    <path id="路径_4" data-name="路径 4" d="M235.611,41.96h-3.391a1,1,0,0,0-.825.444l-4.691,6.91-2-6.626a.988.988,0,0,0-.951-.7h-3.328a.606.606,0,0,0-.571.792l3.74,10.968L220.078,58.7a.58.58,0,0,0,.476.92h3.391a.947.947,0,0,0,.792-.412l11.285-16.292a.561.561,0,0,0-.412-.951Z" transform="translate(-185.61 -35.429)" fill="#050505"/>
    <path id="路径_5" data-name="路径 5" d="M435.745.507l-2.884,18.417a.577.577,0,0,0,.571.666h2.917a1.015,1.015,0,0,0,.982-.825l2.851-18.1A.577.577,0,0,0,439.612,0h-3.265a.616.616,0,0,0-.6.507h0Z" transform="translate(-365.481 0)" fill="url(#linear-gradient-3)"/>
    <path id="路径_6" data-name="路径 6" d="M498.745.507l-2.884,18.417a.576.576,0,0,0,.571.666h2.917a1.015,1.015,0,0,0,.982-.825l2.853-18.1A.577.577,0,0,0,502.613,0h-3.265a.616.616,0,0,0-.6.507h0Z" transform="translate(-418.676)" fill="url(#linear-gradient-4)"/>
    <path id="路径_7" data-name="路径 7" d="M457.613,34.06l-9.695-6.128c-.181-.123-.445.037-.546.314l-.844,2.313a.829.829,0,0,0,.187.951l9.524,6.037c.181.123.445-.037.546-.314l.945-2.59c.073-.258.039-.5-.115-.584h0Z" transform="translate(-376.971 -23.55)" fill="#015bfe"/>
  </g>
</svg>
