<?xml version="1.0" standalone="no"?><!DOCTYPE svg PUBLIC "-//W3C//DTD SVG 1.1//EN" "http://www.w3.org/Graphics/SVG/1.1/DTD/svg11.dtd"><svg t="1728815669548" class="icon" viewBox="0 0 5259 1024" version="1.1" xmlns="http://www.w3.org/2000/svg" p-id="12058" xmlns:xlink="http://www.w3.org/1999/xlink" width="1314.75" height="256"><path d="M4501.644 94.255a64.465 64.465 0 0 1 64 84.48l-48.64 209.454a72.61 72.61 0 0 0-46.546 16.99 82.153 82.153 0 0 0-23.273 43.52c-3.49 15.36-7.68 43.52 17.92 54.69a76.102 76.102 0 0 0 27.23 4.19h-3.724l-76.567 332.566a112.64 112.64 0 0 1-103.331 83.55H3976.61a64.233 64.233 0 0 1-64-83.55l154.53-662.341a112.64 112.64 0 0 1 103.332-83.55z m-196.19 291.141c-20.48 4.19-25.6 5.12-44.45 7.68h-1.63a606.487 606.487 0 0 1-12.8 69.819c-2.56 12.8-6.05 26.53-9.309 40.029v1.629h42.59l1.629-1.63c2.56-11.868 2.56-13.73 7.68-36.77 2.56-11.171 6.749-34.211 9.309-42.59a35.84 35.84 0 0 1 12.8-3.49c10.24 0 8.61 8.61 8.61 11.869s-4.188 24.669-7.68 40.029l-2.56 10.24c-1.628 7.68-3.49 14.429-5.12 23.273v1.629h41.892v-1.63c3.49-17.92 4.189-23.272 9.309-47.708l2.56-11.87c6.05-23.272 8.61-34.21 4.189-43.52a23.273 23.273 0 0 0-23.273-12.8 60.044 60.044 0 0 0-26.53 6.051c-3.492 1.63-6.75 4.19-10.24 6.051l3.49-11.869z m132.19 25.6c-10.24 1.63-16.291 3.491-23.273 4.19l-23.273 3.49-1.629 1.63c-1.629 7.68-1.629 13.73-3.49 21.41l-6.052 29.79c-2.56 9.309-4.189 12.8-5.12 16.29s-2.56 6.75-5.12 16.291a201.076 201.076 0 0 1 21.411 0h23.273l1.629-1.629c1.63-8.61 1.63-11.17 2.56-15.36s2.56-10.24 6.05-27.229a244.364 244.364 0 0 0 6.052-23.273 244.364 244.364 0 0 0 6.05-23.272z m-182.691-106.589a177.57 177.57 0 0 1-44.451 0c-1.63 6.051-23.273 111.71-24.67 111.71a82.85 82.85 0 0 1-20.48 46.545 36.538 36.538 0 0 1-24.668 8.61 23.273 23.273 0 0 1-25.6-23.272v-5.12l4.189-29.09c1.396-6.052 23.272-96.583 28.16-108.917v-1.63h-28.16a130.327 130.327 0 0 1-28.858 0l-1.63 6.75-24.669 109.149-2.56 9.309-4.189 29.789v4.19a42.124 42.124 0 0 0 4.888 17.92c11.17 19.548 43.52 23.272 61.44 23.272a123.578 123.578 0 0 0 59.81-13.731 90.53 90.53 0 0 0 38.4-59.811l2.56-11.17c1.397-6.052 24.902-100.772 28.859-113.106z m256 110.778l-15.128 65.397c-2.792 0-5.818-3.724-5.818-11.404a76.102 76.102 0 0 1 2.56-18.85c3.491-17.455 7.913-31.419 18.153-35.375z m-74.008-36.538a36.305 36.305 0 0 0-36.77 4.19c-11.171 7.68-12.8 17.92-3.491 23.272a38.633 38.633 0 0 0 36.77-4.189c11.637-6.284 11.637-17.455 3.259-23.505z" fill="#E7373D" p-id="12059"></path><path d="M4613.353 555.985l-51.898 170.822a102.633 102.633 0 0 0-3.491 14.43c0 3.49 4.189 6.05 6.749 8.61a17.92 17.92 0 0 0 11.869 2.56 102.4 102.4 0 0 0 16.058 0h9.31l-20.248 87.971a64 64 0 0 0 59.81 83.55h-360.96a64.233 64.233 0 0 1-64-83.55l98.212-421.469c6.283 1.862 4.887 8.611 4.887 11.404s-3.724 21.643-6.75 36.305v3.957l-2.56 10.24-3.49 14.661-1.63 7.448v1.629h41.892v-1.63c3.258-16.523 4.189-21.41 8.378-42.356v-5.585l2.56-11.87c6.05-23.272 8.61-34.21 4.189-43.52a23.273 23.273 0 0 0-23.273-12.8 62.836 62.836 0 0 0-17.687 2.56l49.105-210.85a112.407 112.407 0 0 1 103.331-84.48h367.011a112.873 112.873 0 0 0-104.029 83.549l-49.105 212.48h1.396a28.16 28.16 0 0 0-16.29-4.19 57.716 57.716 0 0 0-26.532 6.052l-6.749 3.956-3.49 1.862 3.49-11.87-1.629-1.628c-18.385 3.956-23.273 4.887-38.865 6.982h-6.982a606.487 606.487 0 0 1-12.8 69.818c-1.862 9.542-4.422 19.782-6.75 29.789l-2.56 10.24v1.629h42.59l1.629-1.63c1.629-11.868 2.56-13.73 6.749-36.77 2.56-11.171 6.75-34.211 9.31-42.59a35.84 35.84 0 0 1 12.8-3.49c9.308 0 7.68 8.61 7.68 11.869s-3.725 21.644-6.75 36.305v3.957l-2.56 10.24-3.49 14.662-1.63 7.447v1.629h23.273l-11.87 51.2h-35.374z m-27.23 58.88h-105.89l-7.68 24.67h23.272l-6.05 21.41h-23.273l-7.68 26.531h23.273l-13.731 46.546a11.17 11.17 0 0 0 2.56 11.17 9.542 9.542 0 0 0 7.68 6.052c3.258 0 5.352 1.396 8.145 1.629h51.433l8.61-29.091-21.41 3.49c-3.957 0-13.266 0-14.43-3.025l10.24-34.909h43.52l7.68-26.53h-43.52l6.75-21.412h41.89z m151.506 129.862z m-113.338-83.782L4608 726.807l25.6-2.56-25.6 2.56a7.215 7.215 0 0 1-5.12-2.56c-1.396-1.396 0-3.49 0-7.447v-2.095l16.29-53.76z m8.61-36.77l-2.792 11.869h-2.094l3.49-11.87z m2.794-11.87l2.792-8.843-1.862 8.145z m-75.87-58.181h-43.52l-11.17 19.549a26.065 26.065 0 0 1-6.75 8.61c0 1.397-3.258 1.63-6.981 1.63h-8.379l-7.68 25.6h18.851a42.356 42.356 0 0 0 19.55-5.12c3.49-1.397 4.654 0 6.516-2.328l6.749-5.12h58.88l7.68-26.53h-43.52z m80.291 54.923z m1.862 0z m2.095-1.163z m2.792-1.397h-1.396 1.396z m2.56-1.163h-1.629 1.63z m2.793-1.164z m3.491-1.396z m3.491 0z m3.956 0h-1.396 5.353-4.19z m-142.661-211.55a74.705 74.705 0 0 0-50.27 16.99 82.153 82.153 0 0 0-23.272 43.52c-3.491 15.36-7.68 43.52 17.92 54.69a76.102 76.102 0 0 0 27.229 4.19 69.818 69.818 0 0 0 52.829-20.48 88.902 88.902 0 0 0 18.85-39.331 49.804 49.804 0 0 0-4.188-45.15 48.873 48.873 0 0 0-39.098-17.687z m-83.55 24.67v-1.63c-10.24 1.63-16.29 3.491-23.272 4.19l-18.153 2.56h-4.887l-1.63 1.629c-1.396 5.818-1.628 10.472-2.327 15.825v5.586l-6.05 29.789c-2.56 9.309-4.19 12.8-5.12 16.29s-2.095 6.052-4.19 13.033v3.259h44.451c1.63-8.611 1.63-11.171 2.56-15.36s2.56-10.24 6.051-27.23a244.364 244.364 0 0 0 6.051-23.272 165.004 165.004 0 0 0 4.19-16.058l1.628-7.913z m78.43 1.629c9.309 0 10.24 11.869 6.05 31.65a86.575 86.575 0 0 1-9.309 27.23 15.127 15.127 0 0 1-12.8 7.68c-1.629 0-9.309 0-9.309-11.87a76.102 76.102 0 0 1 2.56-18.85c3.957-22.808 9.077-39.098 22.342-39.098z m285.789 17.454z m9.076 0h-8.61z m-410.065-48.407c-11.171 7.68-12.8 17.92-3.491 23.273a38.633 38.633 0 0 0 36.77-4.19c11.171-7.68 12.8-17.92 3.491-23.272a36.305 36.305 0 0 0-37.003 0.465z m290.909 10.473z m-1.862-1.63h1.163z m143.127-51.898z m-1.862 0h-2.327z m1.63-33.28z m-9.077 0z m-30.72 127.07z" fill="#004989" p-id="12060"></path><path d="M4854.924 94.255c46.545 0 25.6 37.469 14.429 84.48l-28.626 126.603h-87.272a69.818 69.818 0 0 0-1.63 7.68l-13.73 59.346c-1.862 7.214-30.72 127.069-32.35 132.887h49.571v-1.396c2.095-8.844 8.146-40.262 8.146-40.262 0-3.491 6.05-26.066 6.749-26.764a9.542 9.542 0 0 1 4.189-3.49h36.073l-67.026 286.952H4736l-7.68 25.6h9.076l-23.272 97.28c-11.171 46.545-7.68 83.549-53.76 83.549h-379.811a64.233 64.233 0 0 1-64-83.55l98.21-424.26c6.284 1.86 4.888 8.61 4.888 11.403s-4.19 24.669-7.68 40.029l-2.56 10.24c-1.63 7.68-3.491 14.429-5.12 23.273v1.629h41.89v-1.63c3.492-17.92 4.19-23.272 9.31-47.709l2.56-11.869c6.05-23.272 8.61-34.21 4.189-43.52a23.273 23.273 0 0 0-23.273-12.8 62.836 62.836 0 0 0-17.687 2.56l49.105-210.85a112.407 112.407 0 0 1 103.331-84.48z m-204.8 461.73h-36.771l-51.898 170.822a102.633 102.633 0 0 0-3.491 14.43c0 3.49 4.189 6.05 6.749 8.61a17.92 17.92 0 0 0 11.869 2.56 132.887 132.887 0 0 0 20.48 0h28.16l8.61-29.09-25.6 2.56a7.215 7.215 0 0 1-5.12-2.56c-1.628-1.63 0-4.19 0-9.31l16.292-53.76h76.334a54.458 54.458 0 0 0 13.731-5.12 27.695 27.695 0 0 0 10.24-9.309 67.258 67.258 0 0 0 10.24-23.273l20.48-67.49h-59.81a158.72 158.72 0 0 0-26.532 6.05 127.535 127.535 0 0 0-19.549 12.8z m-64 58.88h-105.891l-7.68 24.67h23.272l-6.05 21.41h-23.273l-7.68 26.531h23.273l-13.731 46.546a11.17 11.17 0 0 0 2.56 11.17 9.542 9.542 0 0 0 7.68 6.052 50.036 50.036 0 0 0 11.17 1.629h48.408l8.61-29.091-21.41 3.49c-4.19 0-15.36 0-14.43-4.188l10.24-34.91h43.52l7.68-26.53h-43.52l6.75-21.411h41.89z m134.749 50.27h-28.16l-3.491 11.17a11.87 11.87 0 0 1-2.56 3.491H4672v-14.429h-35.84l-1.63 71.68a10.705 10.705 0 0 0 4.19 10.24 69.818 69.818 0 0 0 31.65 3.491h23.274l7.68-26.53h-26.299s-1.629 0-2.56-1.63-1.629 0-1.629-5.12v-17.92h20.48a26.53 26.53 0 0 0 19.55-6.749 21.178 21.178 0 0 0 6.749-11.869z m-29.091-40.96l-4.19 11.869a15.593 15.593 0 0 0-7.68 0h-52.13l3.49-11.87z m12.8-40.96l-4.19 14.429h-33.28a67.258 67.258 0 0 0-32.348 14.429l9.309-29.79z m-144.99-29.091h-43.52l-11.17 19.549a26.065 26.065 0 0 1-6.75 8.61c0 1.63-4.188 1.63-9.308 1.63h-6.051l-7.68 25.6h18.85a42.356 42.356 0 0 0 19.55-5.12c4.189-1.63 5.12 0 7.68-3.491l6.749-5.12h58.88l7.68-26.531h-43.52z m-39.33-166.4a74.705 74.705 0 0 0-50.27 16.989 82.153 82.153 0 0 0-23.272 43.52c-3.49 15.36-7.68 43.52 17.92 54.69a76.102 76.102 0 0 0 27.23 4.19 69.818 69.818 0 0 0 52.828-20.48 88.902 88.902 0 0 0 18.851-39.331 49.804 49.804 0 0 0-4.189-45.15 48.873 48.873 0 0 0-38.865-14.196z m-83.55 23.272c-10.24 1.63-16.29 3.491-23.272 4.19l-23.273 3.49-1.629 1.63c-1.629 7.68-1.629 13.73-3.49 21.41l-6.052 29.79c-2.56 9.309-4.189 12.8-5.12 16.29s-2.56 6.75-5.12 16.291a201.076 201.076 0 0 1 21.411 0h23.273c1.63-8.61 1.63-11.17 2.56-15.36s2.56-10.24 6.05-27.229a244.364 244.364 0 0 0 6.052-23.273 244.364 244.364 0 0 0 6.05-23.272z m200.612-25.6a440.32 440.32 0 0 1-44.451 7.68h-1.63a606.487 606.487 0 0 1-12.8 69.819c-2.56 12.8-6.05 26.53-9.308 40.029v1.629h42.589l1.629-1.63c1.629-11.868 2.56-13.73 6.749-36.77 2.56-11.171 6.749-34.211 9.309-42.59a35.84 35.84 0 0 1 12.8-3.49c9.309 0 7.68 8.61 7.68 11.869s-4.19 24.669-7.68 40.029l-2.56 10.24c-1.63 7.68-3.491 14.429-5.12 23.273v1.629h43.287v-1.63c3.491-17.92 4.19-23.272 9.31-47.708l2.56-11.87c6.05-23.272 8.61-34.21 4.188-43.52a23.273 23.273 0 0 0-23.272-12.8 57.716 57.716 0 0 0-26.531 6.051c-3.491 1.63-6.75 4.19-10.24 6.051l3.49-11.869z m-122.415 28.859c9.31 0 10.24 11.869 6.051 31.65a86.575 86.575 0 0 1-9.31 27.23 15.127 15.127 0 0 1-12.8 7.68c-1.628 0-9.308 0-9.308-11.87a76.102 76.102 0 0 1 2.56-18.85c4.422-19.55 9.542-35.84 22.807-35.84z m-78.429-35.84a36.305 36.305 0 0 0-36.77 4.189c-11.172 7.68-12.8 17.92-3.492 23.272a38.633 38.633 0 0 0 36.771-4.189c12.102-6.05 12.102-17.222 3.724-23.272z m357.702-44.219h5.12l28.625 2.56 4.422 2.095-14.894 58.182a69.818 69.818 0 0 1-26.764 5.12h-12.335v-2.56l13.731-59.811z" fill="#004989" p-id="12061"></path><path d="M5171.665 94.255a64.465 64.465 0 0 1 64.699 84.48l-154.531 662.341a112.64 112.64 0 0 1-103.331 83.55h-331.87a64.233 64.233 0 0 1-64-83.55l20.248-87.97h23.273l8.61-29.091-25.6 2.56 15.128-65.63h71.447a54.458 54.458 0 0 0 13.731-5.12 27.695 27.695 0 0 0 10.24-9.309 67.258 67.258 0 0 0 10.24-23.272l20.48-67.491h-59.81a158.72 158.72 0 0 0-26.532 6.05 127.535 127.535 0 0 0-19.549 12.8l5.12-18.85h-1.396l11.869-51.2h17.687v-1.63c3.491-17.92 4.19-23.272 9.31-47.708l2.56-11.87c6.05-23.272 8.61-34.21 4.188-43.52a19.084 19.084 0 0 0-8.145-9.541l49.105-212.48a112.873 112.873 0 0 1 105.891-83.55z m-338.85 460.8h-38.633l-9.31 26.763-40.96 135.68h-7.68l-7.68 25.6h78.43l-2.56 8.611h38.4l2.56-8.61h10.007l-3.258 10.24h29.09a34.91 34.91 0 0 0 30.72-16.292l20.48-28.16 4.19 29.091a12.8 12.8 0 0 0 7.68 9.31 18.85 18.85 0 0 0 10.24 4.188h25.833l8.61-28.16h-5.12a26.298 26.298 0 0 1-9.309-1.629s0-3.49-1.629-6.05l-4.189-29.092h-18.85l8.61-9.309h45.15l6.748-23.272h-41.89l6.749-20.48h41.89l7.68-25.6h-125.44l-7.68 25.6h45.15l-6.75 20.48h-45.149l-6.749 23.272h40.03l-33.513 44.219a8.61 8.61 0 0 1-6.051 5.12 16.29 16.29 0 0 1-7.68 2.56h-10.007l3.956-12.8h-11.171l40.495-134.517h12.8l4.189-13.73v16.29c0 9.31 6.749 17.92 26.53 16.291h23.273l7.68-25.6h-8.61c-5.12 0-6.75-1.629-6.75-4.189v-15.36H4915.2s-57.25 0-66.56 3.49a68.19 68.19 0 0 0-20.48 10.24z m-111.71 110.08h-28.16l-3.49 11.17a11.87 11.87 0 0 1-2.56 3.491h-14.662v-14.429h-35.84l-1.63 71.68a10.705 10.705 0 0 0 4.19 10.24 69.818 69.818 0 0 0 31.65 3.491h23.273l7.68-26.53h-26.298s-1.629 0-2.56-1.63-1.629 0-1.629-5.12v-17.92h20.48a26.53 26.53 0 0 0 19.55-6.749 21.178 21.178 0 0 0 6.748-11.869z m104.96 21.41l-9.309 29.79h-31.883l9.309-29.79z m-16.29-52.829h30.952l-7.68 24.67a109.847 109.847 0 0 0-16.29 2.56 152.67 152.67 0 0 0-17.92 7.68z m-117.76-9.309l-4.19 11.87a15.593 15.593 0 0 0-7.68 0h-48.872l2.792-11.87z m164.77-41.89l-7.68 24.668a129.862 129.862 0 0 0-16.29 2.56c-6.051 1.63-17.92 6.75-17.92 6.75l10.24-34.211z m-151.97 0l-4.19 14.428h-33.28a69.818 69.818 0 0 0-31.65 13.731l1.861-8.145 6.75-21.178z m430.08-196.19a424.96 424.96 0 0 1-43.52 7.68l-1.63 1.63-2.327 5.12c-12.102 26.763-12.102 21.876-23.273 46.545v-3.491l-2.56-55.39-1.629-1.628h-4.887a362.356 362.356 0 0 1-37.004 6.749l-1.629 1.629v5.353c1.862 9.774 1.397 9.076 3.724 27.229 0 9.309 2.56 19.549 3.49 29.789 1.63 16.29 3.492 23.273 5.12 49.57-12.8 20.946-16.523 29.557-27.694 46.546h-1.396l-9.31 15.36s-1.628 2.56-3.49 2.56a12.567 12.567 0 0 1-6.05 0h-5.12l-7.68 24.67h25.6a31.418 31.418 0 0 0 29.788-16.292l13.498-23.272 3.491-3.491v-1.862c13.964-30.022 93.091-166.167 93.091-166.167z m-200.611 3.491a56.32 56.32 0 0 0-47.71 16.99 79.593 79.593 0 0 0-23.272 42.588c-3.491 15.36-7.68 43.52 17.92 53.76a57.716 57.716 0 0 0 23.273 4.19 40.96 40.96 0 0 0 23.272-11.87l-2.56 9.31v1.629h46.778c3.491-17.92 6.051-34.211 13.731-67.491 3.491-15.36 6.75-31.651 11.171-46.546v-1.629c-20.48 4.19-26.53 5.12-46.545 7.68h-1.63v5.586a28.16 28.16 0 0 0-14.894-13.499z m-181.76-86.109a69.818 69.818 0 0 0-1.63 7.68l-12.8 60.975c-1.861 7.214-30.72 127.069-32.349 132.887h49.571v-1.396c2.095-8.844 8.146-40.262 8.146-40.262 0-3.491 6.05-26.066 6.749-26.764a9.542 9.542 0 0 1 4.189-3.49h8.145a123.81 123.81 0 0 0 76.335-17.92 87.273 87.273 0 0 0 32.35-52.132 60.742 60.742 0 0 0 2.56-17.92 36.77 36.77 0 0 0-6.75-23.272c-11.87-15.36-36.77-16.291-64.93-16.291h-34.445c-20.712-0.699-30.487-0.931-35.141-1.63z m179.2 112.64c8.61 0 13.032 7.68 11.636 21.644l-2.327 9.774-3.026 13.033a53.527 53.527 0 0 1-6.283 13.498 20.945 20.945 0 0 1-16.291 7.68c-1.63 0-9.31 0-9.31-11.869a76.102 76.102 0 0 1 2.56-18.85c4.19-18.154 9.31-34.444 23.04-34.444z m-137.542-82.153h5.12l28.625 2.56a23.273 23.273 0 0 1 12.8 29.79 40.96 40.96 0 0 1-23.272 29.789 76.8 76.8 0 0 1-31.651 5.12h-7.68v-2.56l13.73-59.811z" fill="#007F90" p-id="12062"></path><path d="M4840.727 94.255h331.171a64.465 64.465 0 0 1 64.466 84.48l-154.531 662.341a112.64 112.64 0 0 1-103.331 83.55h-331.87a64.233 64.233 0 0 1-64-83.55l153.6-663.272a112.873 112.873 0 0 1 104.495-83.55z" fill="#007F90" p-id="12063"></path><path d="M4832.815 555.055l-4.19 13.73a68.19 68.19 0 0 1 20.48-10.24c9.31-2.56 66.56-3.49 66.56-3.49h37.702v15.36c0 2.56 1.63 4.189 6.75 4.189h8.61l-7.68 25.6h-23.272c-19.55 1.629-27.23-6.75-26.531-16.291v-16.291l-4.19 13.73h-12.8l-40.029 134.052h11.171l-3.956 12.8h10.007a16.29 16.29 0 0 0 7.68-2.56 8.61 8.61 0 0 0 6.051-5.12l32.35-43.52h-40.03l6.75-23.273h45.148l6.75-20.48h-45.15l7.68-25.6h125.44l-7.68 25.6h-41.89l-6.75 20.48h41.891l-6.749 23.273h-45.847l-8.611 9.309h18.85l4.19 29.09c0 2.56 0 5.12 1.63 6.052a26.298 26.298 0 0 0 9.308 1.629h5.12l-7.214 29.323h-25.6a18.85 18.85 0 0 1-10.24-4.189 12.8 12.8 0 0 1-7.68-9.309l-4.19-29.09-20.48 28.16a34.91 34.91 0 0 1-30.72 16.29h-29.09l3.258-10.24h-10.007l-2.56 8.611h-38.4l2.56-8.61h-78.43l7.68-25.6h7.68l40.728-136.612 8.61-27.229z m-182.691 0l-5.12 18.85a127.535 127.535 0 0 1 19.549-12.8 158.72 158.72 0 0 1 26.53-6.05h59.812l-20.48 67.49a67.258 67.258 0 0 1-10.24 23.273 27.695 27.695 0 0 1-10.24 9.31 54.458 54.458 0 0 1-13.731 5.12h-75.171l-16.291 53.76c-1.63 5.12-2.56 7.68 0 9.308a7.215 7.215 0 0 0 5.12 2.56l25.6-2.56-8.611 29.091h-28.16a132.887 132.887 0 0 1-20.48 0 17.92 17.92 0 0 1-11.87-2.56c-2.56-2.56-6.748-5.12-6.748-8.61a102.633 102.633 0 0 1 3.49-14.43l51.2-170.589z m-64 58.88l-7.68 24.669h-41.891l-6.75 21.41h43.52l-7.68 26.531h-43.52l-10.24 34.91c0 4.189 10.24 4.189 14.43 4.189l21.41-3.491-9.541 30.254h-46.546a50.036 50.036 0 0 1-11.17-1.629 9.542 9.542 0 0 1-7.68-6.05 11.17 11.17 0 0 1-2.56-11.172l13.73-46.545h-23.272l7.68-26.531h23.272l6.051-21.41h-23.272l7.68-24.67z m134.749 50.269l-3.491 16.29a21.178 21.178 0 0 1-6.75 11.87 26.53 26.53 0 0 1-19.548 6.749h-20.48v17.92c0 5.12 0 5.12 1.629 5.12s1.629 1.629 2.56 1.629h26.298l-7.68 26.53h-23.273a69.818 69.818 0 0 1-31.65-3.49 10.705 10.705 0 0 1-4.19-10.24l1.63-71.68h35.84v14.429h14.661a11.87 11.87 0 0 0 2.56-3.491l3.491-11.17z m104.96 21.41h-31.651l-9.31 29.79h32.583z m-16.291-52.829l-10.24 35.84a152.67 152.67 0 0 1 17.92-7.68 109.847 109.847 0 0 1 16.29-2.56l7.68-24.669h-31.65z m-117.76-9.309h-60.51l-3.49 11.87h52.13a15.593 15.593 0 0 1 7.68 0z m164.77-41.89h-31.65l-10.24 34.21s11.869-5.12 17.92-6.749a129.862 129.862 0 0 1 16.29-2.56z m-151.97 0h-60.51l-9.308 29.789a67.258 67.258 0 0 1 32.349-14.43h33.28z m-144.99-29.091l-8.61 15.36h43.52l-7.68 26.53h-58.88l-6.75 5.12c-2.56 2.56-3.49 1.63-7.68 3.491a42.356 42.356 0 0 1-19.548 5.12h-18.851l7.68-25.6h6.05c5.12 0 8.612 0 9.31-1.629a26.065 26.065 0 0 0 6.749-8.61l11.17-19.55z m575.303-167.331l1.629 1.629s-82.851 142.429-93.091 168.029l-3.491 3.49-13.498 23.273a31.418 31.418 0 0 1-29.79 16.291h-25.6l7.68-24.669h5.12a12.567 12.567 0 0 0 6.051 0c1.63 0 2.56-1.629 3.491-2.56l9.31-15.36h1.396c10.938-17.222 14.894-26.065 27.694-46.545-1.629-25.6-3.49-33.28-5.12-49.571 0-10.24-2.56-20.48-3.49-29.79-2.56-19.548-1.63-16.988-4.19-29.788v-2.56l1.63-1.63c19.549-2.56 20.48-3.49 41.89-7.68l1.63 1.63 2.56 55.389v3.49c11.17-25.6 10.24-18.85 24.669-51.2l1.629-1.628a424.96 424.96 0 0 0 43.52-7.68z m-200.611 3.49a28.16 28.16 0 0 1 15.36 13.266v-5.585h1.629c19.549-2.56 25.6-3.491 46.545-7.68v1.629c-4.189 15.36-7.68 31.65-11.17 46.545-7.68 33.28-10.24 49.571-13.732 67.491h-47.01v-1.63l2.56-9.308a40.96 40.96 0 0 1-23.273 11.869 57.716 57.716 0 0 1-23.273-4.19c-25.6-10.24-21.41-38.4-17.92-53.76a79.593 79.593 0 0 1 23.273-42.588 56.32 56.32 0 0 1 46.545-14.197z m-414.022-2.56a48.873 48.873 0 0 1 40.029 14.43 49.804 49.804 0 0 1 4.189 45.149 88.902 88.902 0 0 1-18.85 39.33 69.818 69.818 0 0 1-52.83 20.48 76.102 76.102 0 0 1-27.23-4.188c-25.6-11.171-21.41-39.331-17.92-54.691a82.153 82.153 0 0 1 23.274-43.52 74.705 74.705 0 0 1 49.57-15.128z m-214.807-0.698l1.629 1.63-3.491 11.869c3.49-1.63 6.749-4.19 10.24-6.051a60.044 60.044 0 0 1 26.53-6.051 23.273 23.273 0 0 1 23.273 12.8c4.19 9.309 1.63 21.41-4.189 43.52l-2.56 11.869c-5.12 25.6-6.05 29.789-9.309 47.709v1.629h-41.89v-1.63c1.628-7.68 3.49-14.428 5.12-23.272l2.56-10.24c3.49-15.36 6.748-34.21 7.68-40.029s1.628-11.869-8.612-11.869a35.84 35.84 0 0 0-12.8 3.49c-2.56 8.612-6.749 31.652-9.309 42.59-5.12 23.273-5.12 24.67-7.68 36.77l-1.629 1.63h-42.589v-1.63c3.491-13.73 6.75-27.228 9.31-40.028a606.487 606.487 0 0 0 12.8-69.818h1.628c16.757 0.232 21.877-0.699 43.288-4.888z m132.189 25.6v1.63a244.364 244.364 0 0 1-6.051 23.272 244.364 244.364 0 0 1-6.051 23.273c-3.491 16.989-5.12 23.273-6.051 27.229s0 6.75-2.56 15.36h-23.273a201.076 201.076 0 0 0-21.41 0c2.56-9.31 4.188-12.8 5.12-16.29s2.56-6.75 5.12-16.292l6.05-29.789c1.63-7.68 1.63-13.73 3.491-21.41l1.63-1.63 23.272-3.49c3.49 1.396 9.542-0.234 19.782-1.863z m200.61-25.6l1.63 1.63-3.491 11.869c3.49-1.63 6.749-4.19 10.24-6.051a57.716 57.716 0 0 1 26.53-6.051 23.273 23.273 0 0 1 23.273 12.8c4.19 9.309 1.63 21.41-4.189 43.52l-2.56 11.869c-5.12 25.6-6.05 29.789-9.309 47.709v1.629h-41.89v-1.63c1.628-7.68 3.49-14.428 5.12-23.272l2.56-10.24c3.49-15.36 6.748-34.21 7.68-40.029s1.628-11.869-7.68-11.869a35.84 35.84 0 0 0-12.8 3.49c-2.56 8.612-6.75 31.652-9.31 42.59-4.189 23.273-5.12 24.67-6.749 36.77l-1.629 1.63h-42.59v-1.63c3.492-13.73 6.75-27.228 9.31-40.028a606.487 606.487 0 0 0 12.8-69.818h1.63a440.32 440.32 0 0 0 40.494-4.888z m116.364-80.989h69.818c28.16 0 52.83 0 64.931 16.291a36.77 36.77 0 0 1 6.75 23.273 60.742 60.742 0 0 1-2.56 17.92 87.273 87.273 0 0 1-32.35 52.13 123.81 123.81 0 0 1-76.334 17.92h-8.146a9.542 9.542 0 0 0-4.189 3.492l-6.749 27.229s-6.05 31.418-8.145 40.262v1.396h-49.571c1.629-5.818 30.487-125.44 32.349-132.887l12.8-59.811a69.818 69.818 0 0 1-0.698-7.447z m-498.502 0v1.63c-4.189 12.8-29.09 113.57-29.09 113.57l-2.56 11.171a90.53 90.53 0 0 1-38.4 59.811 123.578 123.578 0 0 1-59.811 13.731c-17.92 0-50.27-2.56-61.44-23.273a44.916 44.916 0 0 1-5.12-23.272l4.189-29.79 2.56-9.309 24.669-109.149s1.629-6.05 1.629-6.749a130.327 130.327 0 0 0 28.858 0h26.764v1.63c-4.19 12.8-28.16 109.148-28.16 109.148l-4.19 29.091v5.12a23.273 23.273 0 0 0 25.6 23.273 36.538 36.538 0 0 0 24.67-8.61 82.85 82.85 0 0 0 20.48-46.546s23.272-105.891 24.669-111.71a177.57 177.57 0 0 0 44.45 0z m677.702 112.64c-13.73 0-18.85 16.291-23.273 34.91a76.102 76.102 0 0 0-2.56 18.85c0 11.87 7.68 11.87 9.31 11.87a20.945 20.945 0 0 0 16.29-7.68 53.527 53.527 0 0 0 6.284-13.499l3.026-13.033 2.327-9.774c-0.466-13.964-4.887-21.876-13.498-21.876z m-418.909-2.792c-13.73 0-18.85 16.29-23.273 35.84a76.102 76.102 0 0 0-2.56 18.85c0 11.87 7.68 11.87 9.31 11.87a15.127 15.127 0 0 0 12.8-7.68 86.575 86.575 0 0 0 9.309-27.23c5.12-19.549 4.189-31.65-5.586-31.65z m-116.364-31.651a36.305 36.305 0 0 1 36.771-4.19c9.31 6.051 7.68 16.291-3.49 23.273a38.633 38.633 0 0 1-36.771 4.19c-7.913-5.12-6.051-15.36 4.887-23.04z m395.637-48.408v6.051l-13.731 59.811v2.56h7.68a76.8 76.8 0 0 0 31.65-5.12 40.96 40.96 0 0 0 23.274-29.789 23.273 23.273 0 0 0-12.8-29.789l-28.626-2.56z" fill="#FFFFFF" p-id="12064"></path><path d="M225.978 3.49A225.978 225.978 0 0 0 0 229.47v566.69a225.978 225.978 0 0 0 225.978 225.978h566.924A225.978 225.978 0 0 0 1018.88 796.16V229.47A225.978 225.978 0 0 0 792.902 3.49H225.978z" fill="#ED171F" p-id="12065"></path><path d="M990.022 612.073V796.16a197.12 197.12 0 0 1-103.098 173.382 195.724 195.724 0 0 1-44.684 17.687 197.353 197.353 0 0 1-49.338 6.284H225.978a196.19 196.19 0 0 1-102.167-28.626l-7.447-5.12a198.284 198.284 0 0 1-53.295-53.294A196.19 196.19 0 0 1 29.324 796.16V612.073a1079.156 1079.156 0 0 0 480.581 112.174 1079.156 1079.156 0 0 0 480.117-112.174zM735.418 512l2.793 41.89a75.17 75.17 0 0 1 0 10.474 96.35 96.35 0 0 1 4.654-10.473L764.975 512h18.85l-56.087 93.09h-17.687l16.058-26.53-9.774-66.56z m-266.473-1.396c19.317 0 26.764 14.894 23.273 34.676a40.495 40.495 0 0 1-38.167 34.91c-19.316 0-26.764-14.895-23.273-34.91a40.495 40.495 0 0 1 38.167-34.444z m212.48 0c16.99 0 25.135 6.749 21.179 23.272l-9.31 40.96a69.818 69.818 0 0 1-26.065 4.888c-20.014 0-28.16-7.913-25.134-21.411 4.189-18.153 23.272-21.877 44.218-23.273v-3.49c1.629-6.983-2.56-9.543-10.24-9.543a61.44 61.44 0 0 0-19.55 3.957l-1.628-11.404a77.498 77.498 0 0 1 26.763-3.724zM280.67 488.727L266.24 552.03a9.542 9.542 0 0 0 10.24 12.567 16.29 16.29 0 0 0 16.058-12.567l14.43-63.302h17.454l-14.43 63.07a36.073 36.073 0 0 1-36.77 27.694c-17.455 0-28.16-10.007-23.273-27.695l13.498-63.069z m82.153 21.411c19.782 0 26.996 8.146 23.273 23.273l-10.473 46.545h-16.99l10.706-44.683c1.63-6.75-1.629-10.706-9.309-10.706a33.745 33.745 0 0 0-10.473 1.63l-12.101 53.061h-16.757l14.43-63.302a78.43 78.43 0 0 1 27.694-5.12z m61.673 1.397l-15.128 66.56h-16.756L407.738 512z m114.967-1.397c19.782 0 26.996 8.146 23.273 23.273l-10.473 46.545h-16.99l10.706-44.683c1.63-6.75-1.629-10.706-9.309-10.706a33.745 33.745 0 0 0-10.473 1.63l-12.101 53.061h-16.757L512 515.491a78.43 78.43 0 0 1 27.462-4.655z m76.8-23.273c23.273 0 31.883 11.171 27.927 28.626a38.633 38.633 0 0 1-41.425 28.16h-8.146l-7.913 34.676h-16.989l19.782-86.109a74.24 74.24 0 0 1 26.764-3.49z m67.723 58.88c-12.567 0-23.272 1.63-25.832 11.637-1.397 6.283 2.56 10.007 11.403 10.007a33.513 33.513 0 0 0 9.775-1.396zM465.92 522.473c-8.844 0-15.127 8.145-18.153 21.41s0 21.179 8.378 21.179 15.128-7.913 18.153-21.178 0.698-20.015-8.843-20.015zM613.47 499.2a32.815 32.815 0 0 0-9.31 1.396l-6.516 28.393a37.236 37.236 0 0 0 7.214 0 20.247 20.247 0 0 0 23.273-15.127c0.233-7.68-3.491-12.567-14.662-12.567z m-190.605-17.687a7.215 7.215 0 0 1 7.68 9.076 12.567 12.567 0 0 1-11.636 9.076 7.215 7.215 0 0 1-7.447-9.076 12.335 12.335 0 0 1 11.403-7.214z m-17.221-241.804A16.29 16.29 0 0 1 421.934 256v151.04a16.29 16.29 0 0 1-32.581 0V256a16.29 16.29 0 0 1 16.058-14.196z m475.461-53.527a16.29 16.29 0 0 1 16.291 16.29v23.273h20.48a15.36 15.36 0 1 1 0 30.72h-20.48v139.637a34.676 34.676 0 0 1-34.443 31.185h-25.135a15.36 15.36 0 0 1 2.327-31.65h15.826a10.705 10.705 0 0 0 8.844-10.706V256h-106.59a15.36 15.36 0 0 1 2.328-30.72h104.262v-25.833a16.29 16.29 0 0 1 16.29-13.265z m-256 145.454v59.811a34.676 34.676 0 0 1-34.676 34.677h-25.134a15.36 15.36 0 0 1 2.327-30.72h15.825a10.705 10.705 0 0 0 8.844-10.706v-20.247z m96.35-97.28V411.23a16.29 16.29 0 0 1-32.35-2.327V266.938z m-385.397 44.917a15.593 15.593 0 0 1 0 31.418H181.295l-26.299 67.025a11.17 11.17 0 0 0 0 4.19 10.938 10.938 0 0 0 10.939 10.938h126.37a9.542 9.542 0 0 0 9.542-9.542 9.542 9.542 0 0 0 0-4.19l-8.61-18.385a16.524 16.524 0 1 1 30.021-13.963l10.24 25.6a36.538 36.538 0 0 1-33.513 51.2h-148.48a33.978 33.978 0 0 1-31.883-46.546l26.53-67.025h-39.097a15.593 15.593 0 0 1 2.327-30.72h226.676z m421.004 2.094a16.29 16.29 0 0 1 23.273 0l46.545 46.546 1.63 2.094a16.29 16.29 0 0 1-24.67 20.946l-46.545-46.546a16.29 16.29 0 0 1-0.466-22.574z m-268.335-7.447l12.102 33.513-40.96 41.658-2.094 1.629a16.058 16.058 0 0 1-20.946-24.67z m-79.36-84.48a15.825 15.825 0 0 1 23.273 0l5.818 5.818a10.473 10.473 0 0 0 6.982 2.793h145.92a34.676 34.676 0 0 1 33.745 34.676v33.746l73.077-74.24 2.094-1.63a16.058 16.058 0 0 1 21.179 24.437L590.196 346.298a20.48 20.48 0 0 1-29.09 0l-72.379-72.378 11.404-11.404a16.058 16.058 0 0 1 23.273 0L576 315.113l15.825-15.826v-59.81a10.705 10.705 0 0 0-10.007-10.706H437.062a25.6 25.6 0 0 1-18.153-6.516l-10.705-10.706a15.825 15.825 0 0 1 1.163-22.109z m-88.902 8.61a15.593 15.593 0 1 1 0 31.42H124.51a15.593 15.593 0 1 1 0-31.42h195.956z" fill="#FFFFFF" p-id="12066"></path><path d="M500.596 772.19c-9.774 0-15.36 7.912-17.687 17.454l-32.116 138.24a13.498 13.498 0 0 0 13.265 17.454h-79.127a13.498 13.498 0 0 1-13.498-17.454l32.116-138.24a23.273 23.273 0 0 1 21.644-17.455z" fill="#ED171F" p-id="12067"></path><path d="M585.775 772.19a23.273 23.273 0 0 0-21.644 17.454l-32.116 138.24a13.498 13.498 0 0 0 13.498 17.454h-81.455a13.498 13.498 0 0 1-13.265-17.454l32.116-138.24c2.327-9.775 7.913-17.455 17.687-17.455z" fill="#082F67" p-id="12068"></path><path d="M597.41 772.19h36.54a13.498 13.498 0 0 1 13.497 17.454l-32.116 138.24a23.273 23.273 0 0 1-21.644 17.454h-48.174a13.498 13.498 0 0 1-13.498-17.454l32.116-138.24a23.273 23.273 0 0 1 21.644-17.455z" fill="#006A65" p-id="12069"></path><path d="M2081.28 351.418a40.727 40.727 0 0 1 40.727 40.727V768a40.727 40.727 0 1 1-81.222 0V392.145a40.727 40.727 0 0 1 40.495-40.727z m1186.91-139.636a40.727 40.727 0 0 1 40.726 40.727v57.484h50.968a38.4 38.4 0 1 1 0 76.8h-51.2v336.523a86.342 86.342 0 0 1-86.342 86.342h-57.251a38.4 38.4 0 1 1 0-76.8h37.469a26.996 26.996 0 0 0 23.273-26.763V386.327h-259.258a38.4 38.4 0 1 1 0-76.8h260.189v-57.716a40.727 40.727 0 0 1 40.727-40.96z m-638.372 362.123v149.411a86.342 86.342 0 0 1-86.342 86.342h-56.785a38.4 38.4 0 1 1 0-76.8h37.469a26.996 26.996 0 0 0 23.273-26.763v-50.502z m240.64-240.64V768a40.727 40.727 0 1 1-81.222 0V414.72z m-962.094 113.339a39.098 39.098 0 0 1 0 78.196H1521.57l-65.396 166.167a27.695 27.695 0 0 0-2.095 10.24 26.996 26.996 0 0 0 26.996 26.997h315.113a23.273 23.273 0 0 0 23.273-23.273 23.273 23.273 0 0 0-2.56-10.473l-21.411-46.545a41.193 41.193 0 1 1 74.705-34.91l30.72 65.63a90.996 90.996 0 0 1-83.316 127.534h-370.036a84.945 84.945 0 0 1-79.593-114.269l65.862-167.33h-91.462a39.098 39.098 0 0 1 0-78.197h565.993z m1050.065 5.12a40.495 40.495 0 0 1 57.484 0l118.458 118.458a40.495 40.495 0 1 1-58.182 58.182l-118.458-118.459a40.495 40.495 0 0 1 0-57.949z m-666.764-20.015l30.488 83.55L2217.89 619.52a40.262 40.262 0 1 1-57.018-57.018zM2091.52 220.86a39.33 39.33 0 0 1 55.622 0l14.662 14.661a26.298 26.298 0 0 0 17.687 6.982h363.985a86.342 86.342 0 0 1 86.342 86.342v84.014L2816 226.676a40.262 40.262 0 0 1 57.018 57.019l-329.542 328.61a51.2 51.2 0 0 1-72.378 0l-180.13-180.13 28.392-28.393a40.262 40.262 0 0 1 57.018 0l131.026 131.49 39.796-39.796V346.298a26.996 26.996 0 0 0-26.996-26.996h-360.495a64 64 0 0 1-41.89-16.757l-26.532-26.53a39.33 39.33 0 0 1-0.698-55.157z m-221.79 21.643a39.098 39.098 0 1 1 0 78.196h-488.726a39.098 39.098 0 0 1 0-78.196h488.727z" fill="#333333" p-id="12070"></path></svg>