<?xml version="1.0" standalone="no"?><!DOCTYPE svg PUBLIC "-//W3C//DTD SVG 1.1//EN" "http://www.w3.org/Graphics/SVG/1.1/DTD/svg11.dtd"><svg t="1728815615479" class="icon" viewBox="0 0 2048 1024" version="1.1" xmlns="http://www.w3.org/2000/svg" p-id="8698" xmlns:xlink="http://www.w3.org/1999/xlink" width="512" height="256"><path d="M598.7768978 482.82500848a2.2442301 2.2442301 0 0 1 2.24423012 2.24423013v53.86152278a2.2442301 2.2442301 0 0 1-2.24423012 2.24423013H485.0692386a2.2442301 2.2442301 0 0 1-2.24423012-2.24423013V485.0692386a2.2442301 2.2442301 0 0 1 2.24423012-2.24423012h113.7076592m1e-8-0.7480767H485.0692386a2.99230682 2.99230682 0 0 0-2.99230682 2.99230682v53.86152279a2.99230682 2.99230682 0 0 0 2.99230682 2.99230683h113.7076592a2.99230682 2.99230682 0 0 0 2.99230683-2.99230683V485.0692386a2.99230682 2.99230682 0 0 0-2.99230682-2.99230682z" fill="#ffffff" p-id="8699"></path><path d="M1348.864 343.424c6.912 12.8 4.992 11.264 12.8 12.8h19.712c-4.736-6.528-9.088-19.84-12.032-24.832a9.344 9.344 0 0 0-7.808-4.096h-20.736a80.384 80.384 0 0 1 7.808 16.768" fill="#082F67" p-id="8700"></path><path d="M939.52 549.12zM947.84 549.12h-8.32a49.536 49.536 0 0 0 8.32 0" fill="#004889" p-id="8701"></path><path d="M292.352 299.904h169.216a33.024 33.024 0 0 1 32.768 43.008l-78.72 338.304a57.472 57.472 0 0 1-52.864 42.88H193.408a32.896 32.896 0 0 1-32.768-42.88l78.848-338.304a57.344 57.344 0 0 1 52.864-43.008" fill="#ED171F" p-id="8702"></path><path d="M448 299.904h194.176c23.68 0 12.8 19.2 7.424 43.008l-78.848 338.304c-5.504 23.68-3.84 42.88-27.52 42.88h-194.56a32.896 32.896 0 0 1-32.768-42.88l78.848-338.304A57.472 57.472 0 0 1 448 299.904" fill="#082F67" p-id="8703"></path><path d="M634.496 299.904h169.216a33.024 33.024 0 0 1 32.768 43.008L757.76 681.216a57.472 57.472 0 0 1-52.864 42.88H535.68a32.896 32.896 0 0 1-32.768-42.88l78.72-338.304a57.472 57.472 0 0 1 52.864-43.008" fill="#006A65" p-id="8704"></path><path d="M606.208 618.112h16l4.992-15.36h-16.384z m12.8-42.368l-5.504 18.176a76.8 76.8 0 0 1 9.344-4.096c3.2-1.024 8.192-1.024 8.192-1.024l3.84-12.8h-15.872z m7.936-25.6l-5.248 17.536a84.48 84.48 0 0 1 9.088-4.48 52.48 52.48 0 0 1 8.192-1.152l3.84-12.8H627.2z m35.328 0l-20.608 68.224h5.504l-4.224 14.08h-5.632l-1.28 4.352h-19.712l1.28-4.352h-39.808l3.968-12.8h3.968l20.992-69.376 4.224-13.952h19.968l-2.048 7.04a37.504 37.504 0 0 1 10.368-5.12c4.992-1.408 34.048-1.792 34.048-1.792l-4.224 13.824h-6.912z" fill="#FFFFFF" p-id="8705"></path><path d="M670.976 535.808h21.376v7.936c0 1.28 1.024 1.92 3.456 1.92h4.352l-3.968 12.8h-11.52c-9.984 0.768-13.824-3.584-13.568-8.448zM673.792 598.144h-20.352l3.456-11.776h23.296l3.328-10.368h-23.04l3.968-12.8h64l-3.968 12.8h-21.376l-3.328 10.624h21.504l-3.584 11.776h-23.296l-4.096 4.992h9.472l2.304 14.72a8.064 8.064 0 0 0 0.768 3.072 11.648 11.648 0 0 0 4.992 0.768h2.816l-4.48 14.208h-12.416a13.824 13.824 0 0 1-5.248-2.176 7.168 7.168 0 0 1-3.84-4.992L682.624 614.4l-10.624 14.08a18.048 18.048 0 0 1-15.616 8.064h-14.72l3.84-12.8h5.632a9.216 9.216 0 0 0 4.096-1.152 6.4 6.4 0 0 0 3.2-2.688zM450.688 566.144h54.016l-3.968 12.8h-21.632l-3.328 11.008h22.144l-3.968 12.8h-22.272l-5.376 17.92c-0.64 1.92 5.248 2.176 7.296 2.176l11.008-1.536-4.48 14.72h-24.704a25.6 25.6 0 0 1-5.632-0.768 5.888 5.888 0 0 1-3.968-2.944 5.632 5.632 0 0 1-1.28-5.76l7.168-23.68h-12.8l4.096-13.44h12.8l3.2-11.008h-12.8zM486.4 542.976h22.144l-4.096 13.44H474.88l-3.328 2.816a11.008 11.008 0 0 1-3.712 1.792 21.888 21.888 0 0 1-9.984 2.56H448l3.968-12.8h2.944a10.24 10.24 0 0 0 5.12-0.384 12.032 12.032 0 0 0 3.328-4.224l5.504-10.112h22.016z" fill="#FFFFFF" p-id="8706"></path><path d="M529.536 565.12a34.56 34.56 0 0 1 16.384-7.296h17.024l2.176-7.424h-31.104z m29.184 5.632h-30.976l-1.92 6.272h26.752a19.456 19.456 0 0 1 4.096 0z m-40.064-34.944H537.6l-2.688 9.472a55.936 55.936 0 0 1 10.112-6.4 96.384 96.384 0 0 1 13.568-2.944H588.8l-10.24 34.432a40.064 40.064 0 0 1-4.992 11.52 12.8 12.8 0 0 1-5.12 4.736 19.072 19.072 0 0 1-7.04 2.304h-38.912l-8.32 27.392a6.784 6.784 0 0 0 0 4.736 3.328 3.328 0 0 0 2.816 1.408l12.8-1.28-4.992 15.36h-24.832a11.264 11.264 0 0 1-6.144-1.152 7.552 7.552 0 0 1-3.328-4.352 51.2 51.2 0 0 1 1.664-7.296z" fill="#FFFFFF" p-id="8707"></path><path d="M573.568 591.616l-1.792 8.32a11.264 11.264 0 0 1-3.328 6.272 13.568 13.568 0 0 1-10.112 3.584h-10.368v9.344c0 2.688 0 2.432 1.024 2.816a3.584 3.584 0 0 0 1.408 0.896h13.312l-4.352 13.44h-11.52a36.608 36.608 0 0 1-16-1.664 5.248 5.248 0 0 1-2.176-5.376l0.768-36.608h18.304v7.424h4.48a6.656 6.656 0 0 0 3.072 0 4.096 4.096 0 0 0 1.28-1.92l1.792-5.888h14.336zM312.32 407.936c-0.64 2.944-12.8 57.088-12.8 57.216a39.808 39.808 0 0 1-10.624 23.808 19.072 19.072 0 0 1-12.8 4.352 11.52 11.52 0 0 1-12.8-11.136v-2.56s2.304-14.72 2.432-14.72 12.8-49.408 14.592-55.936v-0.64a200.064 200.064 0 0 1-28.544 0l-0.768 3.584-12.8 55.68-1.152 4.736-2.048 15.36a22.656 22.656 0 0 0 2.688 11.52c5.76 10.112 22.144 11.52 31.36 11.52a61.184 61.184 0 0 0 30.592-7.168A45.568 45.568 0 0 0 320 472.576l1.408-5.504s12.8-51.2 14.848-57.984a3.072 3.072 0 0 1 0-0.768 195.84 195.84 0 0 1-24.192 0M382.592 509.824h-21.504v-0.64l2.688-11.392 1.28-5.12c1.792-8.064 3.712-17.408 3.84-20.224a4.352 4.352 0 0 0-4.096-6.016 16.64 16.64 0 0 0-6.4 2.048c-1.152 4.352-3.584 16.256-4.736 21.888-2.432 11.52-2.688 12.8-3.712 18.56l-0.768 0.768h-21.888v-0.768l4.992-20.736a300.544 300.544 0 0 0 6.4-35.2h0.768c9.856-1.408 12.8-1.664 22.912-3.84l0.896 1.024-1.536 5.888c1.792-1.024 3.456-2.176 5.376-3.072a33.408 33.408 0 0 1 13.696-3.2 11.52 11.52 0 0 1 11.904 6.656 39.808 39.808 0 0 1-1.92 22.4l-1.408 5.888c-2.688 12.8-3.2 15.36-4.736 24.32zM417.152 509.824h-22.784a65.92 65.92 0 0 1 2.432-8.832 59.648 59.648 0 0 0 2.432-8.448c1.536-6.528 2.432-11.136 3.072-14.976s1.024-7.168 1.536-11.008l11.648-1.664 12.032-2.176c-1.024 4.096-2.048 8.064-2.944 12.8l-2.176 11.648c-1.92 8.576-2.688 11.776-3.072 14.08s0 3.328-1.28 7.808zM471.424 479.616a44.928 44.928 0 0 1-4.992 13.952 8.192 8.192 0 0 1-6.4 4.096 5.12 5.12 0 0 1-4.992-6.272 41.216 41.216 0 0 1 1.28-9.728c2.176-9.856 4.864-18.176 11.648-18.176s5.632 6.144 3.328 16.128m22.272 0.896a25.6 25.6 0 0 0-2.176-22.912 25.6 25.6 0 0 0-20.48-7.424 37.504 37.504 0 0 0-25.6 8.832 42.368 42.368 0 0 0-11.392 22.144c-1.792 7.936-3.968 22.4 9.344 27.776a39.936 39.936 0 0 0 13.824 2.176 35.968 35.968 0 0 0 27.136-10.624 47.488 47.488 0 0 0 9.344-19.968M715.008 450.688c-10.624 1.92-13.44 2.304-23.68 3.84h-0.768v2.432a14.464 14.464 0 0 0-7.424-6.144 28.416 28.416 0 0 0-24.32 8.832 41.6 41.6 0 0 0-11.392 22.016c-1.792 7.808-3.968 22.272 9.216 27.392a26.496 26.496 0 0 0 11.776 2.176 19.456 19.456 0 0 0 11.264-5.12l-1.28 4.096v0.768h22.656l0.896-0.768c1.536-8.832 2.944-17.408 6.912-34.304l5.76-24.192z m-33.664 43.904a11.776 11.776 0 0 1-8.32 3.968 5.12 5.12 0 0 1-4.992-6.144 43.264 43.264 0 0 1 1.408-9.728c2.304-9.728 4.864-17.92 11.648-17.92 4.224 0 6.528 3.968 6.016 10.624l-1.152 5.504c-0.64 2.944-1.408 5.76-2.176 8.704a20.48 20.48 0 0 1-2.432 4.992M551.808 509.824h-21.504v-0.64l2.688-11.392 1.152-5.12c1.792-8.064 3.712-17.408 3.84-20.224a4.352 4.352 0 0 0-4.096-6.016 16.512 16.512 0 0 0-6.4 2.048c-1.152 4.352-3.584 16.256-4.864 21.888-2.432 11.52-2.56 12.8-3.712 18.56l-0.768 0.768h-21.888v-0.768l4.992-20.736a296.576 296.576 0 0 0 6.4-35.2h0.768c9.856-1.408 12.8-1.664 22.912-3.84l0.896 1.024-1.536 5.888 5.376-3.072a33.28 33.28 0 0 1 13.696-3.2 11.776 11.776 0 0 1 12.032 6.656 40.32 40.32 0 0 1-2.048 22.4l-1.408 5.888c-2.816 12.8-3.2 15.36-4.736 24.32zM625.536 407.936h-35.84l-0.896 3.584-6.4 30.592-16.512 68.096h25.6c0-3.072 4.352-21.12 4.352-21.12s3.2-12.8 3.328-13.824A7.552 7.552 0 0 1 601.6 473.6h1.408a67.968 67.968 0 0 0 41.728-9.088 44.544 44.544 0 0 0 16.64-26.368 40.832 40.832 0 0 0 1.152-9.216 19.328 19.328 0 0 0-3.328-11.776c-6.272-8.704-18.688-8.832-33.024-8.96m9.216 31.744a22.4 22.4 0 0 1-11.52 15.232 36.48 36.48 0 0 1-16.256 2.56h-3.84v-1.536l7.04-30.336V422.4h2.816l14.848 1.28a12.032 12.032 0 0 1 6.4 15.36M426.496 457.6c5.632-3.84 6.272-9.344 1.536-12.16A19.328 19.328 0 0 0 409.6 448c-5.632 3.84-6.272 9.344-1.536 12.16a19.328 19.328 0 0 0 18.816-1.92M785.92 450.56l-0.768-0.896c-10.496 2.048-12.8 2.432-22.016 3.712l-0.768 0.768c-7.168 16.64-6.912 12.8-12.8 25.6v-1.536l-1.792-27.648-0.896-0.896c-11.008 2.048-11.264 2.432-21.376 3.712l-0.768 0.768v1.152a139.392 139.392 0 0 1 2.176 15.232c0 4.992 1.408 10.112 1.92 15.104 1.024 8.32 1.664 12.8 2.816 25.6-6.784 11.392-8.448 15.616-14.976 25.6l-4.608 7.424a3.712 3.712 0 0 1-1.664 1.536 7.552 7.552 0 0 1-3.072 0H704l-3.84 12.8h12.8A16.256 16.256 0 0 0 729.6 550.4l8.32-14.208 0.896-1.024c5.504-11.904 47.872-84.608 47.872-84.608" fill="#FFFFFF" p-id="8708"></path><path d="M1763.328 448c6.784 13.44 6.912 12.8 15.104 13.44h22.656c-4.736-6.784-16.128-38.4-19.2-43.264a13.696 13.696 0 0 0-10.624-4.224h-20.864s8.192 20.864 12.8 33.92" fill="#082F67" p-id="8709"></path><path d="M1874.176 327.936h-26.624l-7.936 33.92h-110.336l-3.584 15.36h110.208v0.896L1804.8 514.048a37.12 37.12 0 0 1-4.224 13.696 17.536 17.536 0 0 1-17.152 6.016h-40.064a21.248 21.248 0 0 0 0 8.576 14.336 14.336 0 0 0 14.848 6.784h47.488a21.888 21.888 0 0 0 20.736-15.488l36.224-156.416h24.704a12.8 12.8 0 0 0 0-10.496 13.952 13.952 0 0 0-12.8-4.864h-7.936z" fill="#082F67" p-id="8710"></path><path d="M1658.24 549.376h26.624l34.176-147.968c6.912-11.776 15.616-27.136 25.6-45.696 3.968-6.656 11.264-19.584 12.8-22.016l2.688-5.632h-26.752l-1.664 3.072c-12.032 21.632-26.88 47.744-35.328 61.056-14.08 22.4-26.624 35.84-35.456 38.4l-3.84 16.768h3.712a76.8 76.8 0 0 0 22.016-4.48zM1387.264 377.216a20.992 20.992 0 0 0-1.024-7.936 12.8 12.8 0 0 0-12.032-7.424h-99.712a21.504 21.504 0 0 0-16.512 7.424l-2.176 1.92c-10.496 11.136-33.664 37.12-39.296 42.88h-23.808l9.472-10.88c14.08-16.128 68.352-76.16 68.352-76.16h-20.096a14.464 14.464 0 0 0-7.04 1.92 29.056 29.056 0 0 0-8.96 7.168s-41.216 48.256-59.008 67.712a28.928 28.928 0 0 0-5.632 10.112 11.648 11.648 0 0 0 12.8 15.488h21.504c-23.552 25.6-34.56 38.4-46.08 49.92a22.144 22.144 0 0 0-5.76 12.8s1.536-6.4 0-1.024c-2.688 10.496 13.952 11.008 13.952 11.008h51.2a17.92 17.92 0 0 0 11.392-5.248 21.888 21.888 0 0 0 3.84-9.728H1177.6s75.392-84.736 87.168-96.896a30.208 30.208 0 0 1 21.248-12.8h101.504z" fill="#082F67" p-id="8711"></path><path d="M1374.72 430.208a12.8 12.8 0 0 0-0.768-9.856 10.624 10.624 0 0 0-9.6-5.504H1267.2a16.896 16.896 0 0 0-11.904 6.656 14.72 14.72 0 0 0-3.584 8.96h123.008z" fill="#082F67" p-id="8712"></path><path d="M1355.264 543.488a23.168 23.168 0 0 0 6.272-9.728h-39.04a9.984 9.984 0 0 1-11.264-10.368l17.536-194.944h-27.008L1284.48 524.8c-1.152 11.52 3.456 24.832 30.976 24.832h24.192a28.8 28.8 0 0 0 15.616-5.632M1605.376 543.744a18.56 18.56 0 0 0 6.784-10.112 213.632 213.632 0 0 1-22.272-3.968 240.768 240.768 0 0 1-59.136-38.4c21.888-12.8 43.264-25.6 64-38.4a30.208 30.208 0 0 0 12.8-25.6 14.336 14.336 0 0 0-14.208-12.8h-53.76l9.216-37.248h88.96a13.568 13.568 0 0 0-0.896-10.88 12.8 12.8 0 0 0-10.496-4.608h-74.112l7.68-33.536h-27.776l-7.68 33.536h-74.368a20.736 20.736 0 0 0-12.032 3.712 16.896 16.896 0 0 0-6.144 11.776h89.6l-8.448 37.376h-56.576a18.816 18.816 0 0 0-12.8 5.248 21.376 21.376 0 0 0-4.864 9.984h134.912c3.2 0 8.704 6.016-4.096 12.8-20.864 12.8-46.336 27.52-56.832 34.048-2.176-1.92-18.56-15.36-30.08-25.6a17.92 17.92 0 0 0-12.8-4.992h-29.184l48.64 44.8c-12.8 7.808-27.264 16.256-43.904 25.6a86.144 86.144 0 0 1-33.024 12.8l-25.6 3.456a12.8 12.8 0 0 0 1.792 9.984 9.216 9.216 0 0 0 8.576 5.248h21.376a277.248 277.248 0 0 0 44.672-19.2c17.664-9.088 32-16.896 42.624-23.04 2.432 2.176 53.248 36.48 65.792 42.368h22.784a19.328 19.328 0 0 0 11.008-5.248M1103.36 533.632h-61.952l16.512-71.296h49.92a15.36 15.36 0 0 0-0.768-11.392 15.232 15.232 0 0 0-12.8-3.712h-32.896l11.904-51.2h-27.648l-11.904 51.2h-32a19.712 19.712 0 0 0-14.336 3.712 17.152 17.152 0 0 0-5.248 11.392h48.128l-16.512 71.296h-44.544a12.8 12.8 0 0 1-12.8-8.192 21.888 21.888 0 0 1 0-11.52l19.968-86.272 43.136-51.2H1139.2a12.8 12.8 0 0 0-1.152-9.728 13.952 13.952 0 0 0-11.648-4.864h-93.952l4.352-4.48 24.96-29.568h-31.872c-2.56 3.072-25.6 30.848-28.416 34.176h-47.232a25.6 25.6 0 0 0-11.136 2.816 19.2 19.2 0 0 0-7.808 12.8h53.888c-50.432 60.928-51.2 66.688-73.344 78.336 0 0-2.944 12.8-3.584 15.232a100.096 100.096 0 0 0 30.848-16.768l-18.304 79.36a13.952 13.952 0 0 0 2.944 11.136 17.92 17.92 0 0 0 12.16 4.608h142.336a21.76 21.76 0 0 0 17.408-6.272 16.896 16.896 0 0 0 3.712-9.216M1226.624 527.872a18.944 18.944 0 0 1-12.8 7.808L1139.2 549.12a47.36 47.36 0 0 1 7.68-17.024 20.096 20.096 0 0 1 12.8-6.528l71.808-7.04a21.888 21.888 0 0 1-4.096 9.344" fill="#082F67" p-id="8713"></path><path d="M1340.928 446.976a117.12 117.12 0 0 1-23.296 31.616 34.432 34.432 0 0 1-19.072 8.32h-39.552a25.6 25.6 0 0 0-15.104 3.712 18.56 18.56 0 0 0-6.912 11.776h33.792c38.4 0 48.64 0 67.2-15.232a237.568 237.568 0 0 0 32.256-40.448h-29.44zM894.592 654.976a65.408 65.408 0 0 1 8.96-21.888 57.088 57.088 0 0 1 10.624-11.648 45.568 45.568 0 0 1 12.8-7.68 52.864 52.864 0 0 1 19.072-3.328 31.872 31.872 0 0 1 27.392 11.648 38.4 38.4 0 0 1 3.84 32.512 57.472 57.472 0 0 1-18.688 32.256 49.408 49.408 0 0 1-32.64 11.648 31.872 31.872 0 0 1-27.52-11.52 38.4 38.4 0 0 1-3.84-32m17.92 0a27.904 27.904 0 0 0 1.664 21.888 17.024 17.024 0 0 0 15.232 7.424 27.264 27.264 0 0 0 18.56-7.424 41.216 41.216 0 0 0 12.032-22.656 28.288 28.288 0 0 0-1.408-21.888 17.024 17.024 0 0 0-15.36-7.168 27.392 27.392 0 0 0-18.816 7.296 40.832 40.832 0 0 0-11.648 22.016M1036.8 697.088h-16.256L1027.84 665.6a49.792 49.792 0 0 0 1.92-12.8 6.784 6.784 0 0 0-2.304-4.608 7.936 7.936 0 0 0-5.248-1.664 15.872 15.872 0 0 0-8.192 2.304 16.384 16.384 0 0 0-6.016 6.144 59.52 59.52 0 0 0-4.48 14.208l-6.4 27.904h-16.384l14.208-61.696h15.232l-2.048 9.088a31.744 31.744 0 0 1 22.784-10.496 21.76 21.76 0 0 1 9.472 1.92 12.032 12.032 0 0 1 5.632 4.992 14.592 14.592 0 0 1 1.664 6.784 51.2 51.2 0 0 1-1.664 11.008zM1053.44 697.088l19.712-85.248h16.256l-19.584 85.248H1053.44zM1086.592 697.088L1100.8 635.392h16.384l-14.208 61.696h-16.384zM1102.72 627.2l3.456-15.104h16.384L1119.104 627.2h-16.384zM1175.68 697.088h-16.256l7.296-31.488a50.432 50.432 0 0 0 1.92-12.8 6.784 6.784 0 0 0-2.304-4.608 7.936 7.936 0 0 0-5.248-1.664 15.872 15.872 0 0 0-8.192 2.304 16.384 16.384 0 0 0-6.016 6.144 60.16 60.16 0 0 0-4.48 14.208l-6.4 27.904h-16.512l14.208-61.696h15.104l-2.048 9.088a31.744 31.744 0 0 1 22.784-10.496 21.76 21.76 0 0 1 9.472 1.92 12.032 12.032 0 0 1 5.632 4.992 14.592 14.592 0 0 1 1.664 6.784 52.096 52.096 0 0 1-1.664 11.008zM1232.512 677.376l15.616 2.688a36.992 36.992 0 0 1-12.8 13.568 34.304 34.304 0 0 1-18.048 4.736 21.632 21.632 0 0 1-21.376-10.496 31.616 31.616 0 0 1-1.152-21.248 43.648 43.648 0 0 1 13.568-24.064 33.152 33.152 0 0 1 22.272-8.704 21.632 21.632 0 0 1 19.584 9.088 36.096 36.096 0 0 1 1.152 27.904h-40.96a14.336 14.336 0 0 0 1.408 11.264 9.728 9.728 0 0 0 8.448 3.968 12.8 12.8 0 0 0 6.912-2.048 17.792 17.792 0 0 0 5.504-6.784m4.736-16.512a13.568 13.568 0 0 0-1.152-10.752 8.704 8.704 0 0 0-7.68-3.712 14.336 14.336 0 0 0-9.728 3.84 19.2 19.2 0 0 0-5.888 10.624h24.448zM1324.672 697.088L1344 611.84h27.52a94.464 94.464 0 0 1 20.224 1.28 16.256 16.256 0 0 1 10.368 8.32 23.296 23.296 0 0 1 1.152 16.512 34.048 34.048 0 0 1-5.888 12.8 32.64 32.64 0 0 1-19.072 12.8 101.632 101.632 0 0 1-18.176 1.28h-11.136l-7.424 32.128h-17.152z m33.536-70.784l-5.632 24.192h9.472a47.616 47.616 0 0 0 13.952-1.408 15.488 15.488 0 0 0 6.272-4.224 14.72 14.72 0 0 0 3.456-6.656 9.472 9.472 0 0 0-1.024-7.68 8.96 8.96 0 0 0-6.016-3.712 83.968 83.968 0 0 0-12.8 0h-8.32zM1426.048 654.208l-14.208-2.688a31.616 31.616 0 0 1 11.648-12.8 36.48 36.48 0 0 1 19.2-4.352 34.432 34.432 0 0 1 15.616 2.56 11.648 11.648 0 0 1 6.016 6.528 32.384 32.384 0 0 1-1.152 14.592l-4.608 19.072a69.632 69.632 0 0 0-2.048 12.032 29.952 29.952 0 0 0 1.024 8.32h-16.128v-4.864a18.56 18.56 0 0 0 0-1.92 39.68 39.68 0 0 1-10.368 6.144 29.312 29.312 0 0 1-10.624 2.048 17.024 17.024 0 0 1-13.824-5.248 14.336 14.336 0 0 1-2.432-12.8 22.272 22.272 0 0 1 4.608-9.344 22.528 22.528 0 0 1 8.448-6.272 64 64 0 0 1 13.824-3.84 103.808 103.808 0 0 0 16.768-3.968v-1.664a7.296 7.296 0 0 0-0.768-6.656 11.904 11.904 0 0 0-8.32-2.048 13.696 13.696 0 0 0-7.168 1.664 16.768 16.768 0 0 0-5.376 6.016m18.816 12.8a105.088 105.088 0 0 1-10.496 2.432 38.4 38.4 0 0 0-9.472 2.816 9.216 9.216 0 0 0-4.224 5.632 6.656 6.656 0 0 0 1.152 5.888 7.168 7.168 0 0 0 5.888 2.432 17.28 17.28 0 0 0 9.088-2.944 14.208 14.208 0 0 0 5.12-5.376 36.608 36.608 0 0 0 2.432-7.936zM1476.608 635.392h17.408l4.608 43.776 24.576-43.776h16.896l-35.456 59.392-6.4 10.752a58.368 58.368 0 0 1-6.016 8.192 25.6 25.6 0 0 1-5.504 4.608 25.6 25.6 0 0 1-6.912 2.688 34.304 34.304 0 0 1-8.576 1.024 39.04 39.04 0 0 1-8.96-1.024l1.536-12.8a34.432 34.432 0 0 0 6.784 0.768 12.8 12.8 0 0 0 9.216-3.328 31.36 31.36 0 0 0 6.144-8.448zM1548.8 635.392h15.104l-1.92 8.448a31.232 31.232 0 0 1 21.504-9.856 17.792 17.792 0 0 1 9.728 2.432 13.44 13.44 0 0 1 5.504 7.424 39.68 39.68 0 0 1 10.496-7.424 25.6 25.6 0 0 1 10.624-2.432 19.072 19.072 0 0 1 10.88 2.816 12.8 12.8 0 0 1 5.12 8.064 34.56 34.56 0 0 1-1.28 12.8l-8.96 39.424h-16.384l8.192-35.2a25.6 25.6 0 0 0 1.024-11.776 6.016 6.016 0 0 0-6.144-3.456 13.44 13.44 0 0 0-6.912 2.048 16.256 16.256 0 0 0-5.76 6.144 50.432 50.432 0 0 0-4.224 12.8l-6.784 29.696h-16.384l7.808-33.792a47.488 47.488 0 0 0 1.792-11.648 5.632 5.632 0 0 0-1.792-3.968 7.424 7.424 0 0 0-4.736-1.28 13.952 13.952 0 0 0-7.296 2.048 15.36 15.36 0 0 0-5.632 5.888 49.28 49.28 0 0 0-4.224 12.8l-6.912 29.952h-16.384zM1682.432 677.376l15.616 2.688a36.864 36.864 0 0 1-12.8 13.568 34.304 34.304 0 0 1-18.048 4.736 21.632 21.632 0 0 1-21.376-10.496 31.616 31.616 0 0 1-1.152-21.248 43.904 43.904 0 0 1 13.568-24.064 33.28 33.28 0 0 1 22.272-8.704 21.632 21.632 0 0 1 19.584 9.088 36.096 36.096 0 0 1 1.152 27.904h-40.96a14.336 14.336 0 0 0 1.28 11.264 9.728 9.728 0 0 0 8.448 3.968 12.8 12.8 0 0 0 6.912-2.048 17.92 17.92 0 0 0 5.504-6.784m4.736-16.512a13.568 13.568 0 0 0-1.152-10.752 8.704 8.704 0 0 0-7.68-3.712 14.336 14.336 0 0 0-9.728 3.84 19.072 19.072 0 0 0-5.888 10.624h24.448zM1764.352 697.088h-16.384l7.424-31.488a50.048 50.048 0 0 0 1.92-12.8 6.656 6.656 0 0 0-2.304-4.608 7.936 7.936 0 0 0-5.248-1.664 15.872 15.872 0 0 0-8.192 2.304 16.384 16.384 0 0 0-6.016 6.144 59.776 59.776 0 0 0-4.48 14.208l-6.4 27.904h-16.256l14.208-61.696h15.232l-2.048 9.088a31.744 31.744 0 0 1 22.784-10.496 21.76 21.76 0 0 1 9.472 1.92 11.904 11.904 0 0 1 5.632 4.992 14.72 14.72 0 0 1 1.664 6.784 52.48 52.48 0 0 1-1.664 11.008zM1824.128 635.008l-2.944 12.8h-11.264l-5.12 24.96a65.28 65.28 0 0 0-1.664 8.832 2.688 2.688 0 0 0 1.024 2.048 3.84 3.84 0 0 0 2.56 0.768 25.6 25.6 0 0 0 6.912-1.536l-1.536 12.8a36.864 36.864 0 0 1-13.44 2.432 17.92 17.92 0 0 1-7.552-1.536 8.448 8.448 0 0 1-4.352-3.84 12.8 12.8 0 0 1-0.768-6.4 79.872 79.872 0 0 1 2.176-11.52l6.272-26.88h-7.424l2.944-12.8h7.552l3.712-21.76H1817.6l-4.992 21.76h11.136z" fill="#082F67" p-id="8714"></path></svg>