<?xml version="1.0" standalone="no"?><!DOCTYPE svg PUBLIC "-//W3C//DTD SVG 1.1//EN" "http://www.w3.org/Graphics/SVG/1.1/DTD/svg11.dtd"><svg t="1728815480203" class="icon" viewBox="0 0 3242 1024" version="1.1" xmlns="http://www.w3.org/2000/svg" p-id="6206" width="810.5" height="256" xmlns:xlink="http://www.w3.org/1999/xlink"><path d="M253.201067 556.270933c-25.668267 2.525867-73.796267 13.858133-100.1472 37.0688-79.0528 68.608-31.709867 194.048 128 194.048 92.7744 0 185.582933-59.221333 258.389333-153.9072-103.355733-50.4832-191.214933-86.6304-286.242133-77.2096z m595.899733 86.698667c147.797333 49.3568 181.316267 51.950933 181.316267 51.950933V164.181333a164.078933 164.078933 0 0 0-48.093867-116.053333A164.113067 164.113067 0 0 0 866.235733 0H168.072533a164.181333 164.181333 0 0 0-164.181333 164.181333v695.7056A164.1472 164.1472 0 0 0 168.072533 1024h697.9584a164.113067 164.113067 0 0 0 164.1472-164.113067v-6.7584s-266.9568-110.967467-401.8176-175.616c-90.4192 110.8992-207.086933 178.2784-328.328533 178.2784-204.8 0-274.363733-178.688-177.425067-296.379733 21.162667-25.6 57.173333-50.107733 112.981334-63.829333 87.313067-21.4016 226.338133 13.380267 356.5568 56.2176a712.942933 712.942933 0 0 0 57.787733-140.868267H248.6272v-40.618667h206.7456V297.335467H205.243733V257.194667h250.641067V153.3952a17.237333 17.237333 0 0 1 17.749333-17.442133h101.1712v121.2416h247.842134v40.5504H574.805333v72.977066h202.3424a823.671467 823.671467 0 0 1-85.674666 215.790934c61.44 22.1184 116.497067 43.1104 157.627733 56.866133v-0.4096z m0 0" fill="#32A1DC" p-id="6207"></path><path d="M2802.449067 177.015467h312.046933v61.815466h111.479467V165.614933a29.696 29.696 0 0 0-28.8768-30.5152H3016.704V77.5168h-116.6336v57.582933h-209.032533v103.697067h111.445333v-61.781333zM2047.453867 82.8416l-114.210134 270.267733h87.586134v321.570134h95.880533V248.1152h-34.747733l72.260266-165.2736h-106.769066z m1156.1984 458.820267a18.090667 18.090667 0 0 0-17.066667-13.073067h-92.945067l26.9312 90.862933h-109.192533v-175.957333H3225.6v-41.847467h-214.2208V318.839467H3225.6V276.923733H2690.935467v41.915734h214.2208v82.8416h-214.152534v41.915733h214.186667v175.889067h-214.186667v41.949866h547.7376l-0.443733-1.467733h0.443733l-35.089066-118.306133zM2292.667733 304.366933a22.186667 22.186667 0 0 0-19.729066-12.5952h-83.012267l64.648533 203.537067h98.167467l-60.074667-190.941867z m0 0" fill="#394144" p-id="6208"></path><path d="M2502.724267 87.722667h-99.669334v104.174933H2157.568v41.8816h245.486933v374.237867a17.134933 17.134933 0 0 1-16.0768 15.701333h-50.619733v43.383467h129.1264a39.355733 39.355733 0 0 0 37.239467-38.8096V233.745067h40.482133V191.8976h-40.482133V87.722667zM1815.483733 635.392a1186.065067 1186.065067 0 0 1-219.579733-104.6528c82.0224-60.7232 153.9072-143.1552 182.442667-253.405867h-191.214934V208.930133h221.866667V166.126933h-221.866667V79.223467h-98.884266a19.8656 19.8656 0 0 0-19.592534 20.309333v66.594133h-220.330666v42.7008h220.330666v68.4032h-185.9584v42.7008h370.517334s-20.548267 80.145067-122.094934 166.263467c-91.204267-68.778667-121.480533-123.630933-121.480533-123.630933h-99.5328c40.174933 69.632 97.314133 125.405867 158.788267 169.745066-56.490667 36.727467-129.809067 72.123733-224.529067 100.4544v51.3024a1002.1888 1002.1888 0 0 0 287.470933-110.7968 1030.212267 1030.212267 0 0 0 283.648 110.557867v-48.4352zM1354.922667 762.197333l-91.204267 248.046934h46.3872l17.1008-49.937067h91.2384l16.520533 49.937067h46.421334l-91.2384-248.046934h-35.2256z m-16.4864 166.8096l35.566933-102.6048 34.2016 102.6048h-69.768533z m391.236266-166.8096h-44.578133v248.046934h150.152533v-33.723734h-105.608533V762.197333z m326.2464 0h44.612267v248.046934h-44.612267V762.197333z m378.845867 0h-96.392533v248.046934h44.578133v-95.5392h51.848533c48.093867 0 81.7152-31.402667 81.7152-76.322134-0.034133-44.919467-33.655467-76.1856-81.749333-76.1856z m-2.491733 118.647467h-49.322667V795.989333h49.322667c24.746667 0 39.5264 21.674667 39.5264 42.564267 0 20.923733-13.824 42.2912-39.458134 42.2912h-0.068266z m339.319466-118.647467l-91.204266 248.046934h46.3872l17.1008-49.937067h91.204266l16.520534 49.937067h46.3872L2806.784 762.197333h-35.191467z m-16.6912 166.8096l35.566934-102.6048 34.2016 102.6048H2754.901333z m392.021334-166.8096l-48.708267 105.710934-49.425067-105.710934h-48.162133l75.093333 146.193067v101.819733h44.270934v-101.819733l0.3072-0.6144 74.820266-145.6128h-48.196266z m0 0" fill="#394144" p-id="6209"></path></svg>