<?xml version="1.0" standalone="no"?><!DOCTYPE svg PUBLIC "-//W3C//DTD SVG 1.1//EN" "http://www.w3.org/Graphics/SVG/1.1/DTD/svg11.dtd"><svg t="1728815544105" class="icon" viewBox="0 0 3174 1024" version="1.1" xmlns="http://www.w3.org/2000/svg" p-id="6599" xmlns:xlink="http://www.w3.org/1999/xlink" width="793.5" height="256"><path d="M1305.6 397.1584c34.56-39.68 64.5376-86.6816 88.7552-141.0816l30.5408 14.1568c-11.52 23.808-23.04 45.9008-35.7376 66.304v238.0032h-31.1296v-190.4128a444.5184 444.5184 0 0 1-40.32 49.3056A445.8496 445.8496 0 0 0 1305.6 397.1584z m2.304-146.176c38.6048-38.5536 67.9936-78.208 87.04-118.4512l28.8 15.872a541.6192 541.6192 0 0 1-104.8832 137.7024c-2.8928-11.3408-6.912-23.2448-10.9568-35.1488z m232.2432 176.7936h-61.0816v20.9664c0 54.4-15.5648 92.928-46.6944 116.1472a282.112 282.112 0 0 0-20.736-28.8768c24.192-15.872 36.3008-45.9008 36.3008-90.6752v-48.1792h122.752v78.7712a1224.0128 1224.0128 0 0 0 48.384-42.496c2.8928 13.056 5.1968 24.9344 8.0896 35.1232a1059.3536 1059.3536 0 0 0-57.6256 48.7424c-6.912 6.2464-12.6976 12.4672-18.432 18.1248l-23.6544-28.9024c8.064-7.936 12.6976-19.2512 12.6976-32.8448V427.776z m-106.624-145.0752V171.6224h29.3888v80.4864h38.0416V136.4992h30.5408v115.0464h38.0416V171.0592h29.3888v126.3616H1569.536v-14.72h-136.0128z m9.216 40.2432h146.944v31.744h-146.944v-31.744z m209.7664-192.6656l31.1296 5.632a1387.0848 1387.0848 0 0 1-17.3056 79.9232h99.712v32.8704h-21.9136c-6.3232 86.7072-21.3248 155.264-44.3648 205.696a285.952 285.952 0 0 0 69.7344 86.7072c-6.912 11.904-13.2608 23.2192-19.6096 35.1232a358.9376 358.9376 0 0 1-67.4048-87.808c-18.432 31.7184-42.0864 61.7472-71.4752 91.2128-6.3232-8.4992-13.824-18.1248-22.4768-28.3392 33.4336-31.1552 59.3664-63.4624 77.824-97.4592-17.3056-41.9328-27.6736-88.96-31.1296-141.1072-5.1968 11.904-10.368 22.6816-15.5648 33.9968a205.568 205.568 0 0 0-21.888-23.808c25.344-53.248 44.3648-116.736 54.7328-192.64z m59.9296 117.8624h-55.296l-1.1776 4.5312c0.5888 61.7728 9.216 116.1728 26.5216 162.6368 13.2352-37.4016 23.04-92.928 29.952-167.168z m65.6896 99.7376c44.9536-65.7408 78.9504-138.8544 101.9904-218.752l35.7376 10.2144a1107.0976 1107.0976 0 0 1-43.776 112.768v325.248h-33.4336V318.3872c-14.4128 24.3712-28.8256 46.4896-44.9536 66.8672l-15.5648-37.376z m133.7088-156.9792h150.4a2034.688 2034.688 0 0 0-28.8256-46.464l31.1296-15.872c10.9312 16.4352 21.888 33.4336 32.8448 51.5584l-20.1728 10.2144h159.616v31.744H1911.8336V190.8736z m25.344 73.6768h272v30.592H1937.152v-30.592z m0 73.088h272v30.592H1937.152V337.664z m5.1968 73.6768h262.7584v166.016h-35.712v-27.1872h-191.3344v27.1872h-35.712v-166.016z m227.0464 30.592h-191.3344v77.056h191.3344v-77.056z m87.5776-248.7552h209.7664V128h38.016v65.1776h199.9616v32.8448h-199.936v67.456h130.2272v31.744c-27.648 60.032-66.8672 110.4896-117.5552 150.7072 50.1248 26.624 114.688 45.9008 193.6128 57.2416a655.0016 655.0016 0 0 0-26.5216 39.68c-87.5776-17.024-155.008-41.3952-202.24-72.5504-50.1504 30.592-118.7328 57.2416-206.336 79.3344-6.3232-14.1568-12.6464-26.0608-20.1472-35.712 83.5584-18.688 149.248-40.7808 195.9168-66.304-44.3648-37.376-78.9248-87.808-103.7056-150.144h-45.5424v-32.8704h164.2496V226.6112h-209.7664V193.1776z m332.4928 133.7344H2386.688c22.4768 54.4 54.7328 97.4592 97.3824 128.6144 47.8208-35.6864 82.9696-78.1824 105.472-128.6144z m134.8608 18.688c42.624-58.9312 77.7984-130.8928 105.4464-216.4736l38.0416 14.1824a1387.3152 1387.3152 0 0 1-39.1936 94.0544v337.152h-36.864V309.3504a712.1152 712.1152 0 0 1-52.48 79.36c-6.3232-20.4288-10.9312-34.5856-14.9504-43.0848z m134.272-113.3312h211.456V133.0944h37.4784v99.1744H3174.4v34.56h-66.8416v229.504c0 47.0272-21.9136 70.8352-65.1264 71.9616-14.4128 0.5632-37.4528 0-69.1456-0.5632a525.9008 525.9008 0 0 0-7.5008-40.8064c29.3888 2.2784 52.4544 3.4048 68.608 3.4048 14.3872 0.5632 23.6032-2.816 28.8-9.0624 5.1712-5.6576 7.4752-17.5616 7.4752-35.712v-218.7264h-212.0448v-34.56z m29.952 106.5216l31.1296-19.2512c18.9952 26.624 40.9088 61.7728 66.2528 104.832l-33.408 20.4032c-21.9136-41.3696-43.2384-77.056-63.9744-105.984zM1676.1344 700.3392l-63.3856 222.6944H1578.752l-45.5424-160.3584a75.5712 75.5712 0 0 1-3.456-23.2448h-0.5632c-0.5888 7.936-1.7408 15.3088-4.0448 22.6816l-46.08 160.9216h-34.0224l-65.6896-222.72h32.256l46.1312 168.32c2.304 7.3728 3.456 15.3088 3.456 22.656h1.152c0.5632-5.632 2.304-13.568 4.608-22.656l48.9728-168.2944h28.8256l46.6688 169.4208c1.7408 5.6832 2.8928 12.4672 4.0448 21.5296h0.5632c0.5888-6.2208 1.7408-13.568 4.0448-22.0928l44.3648-168.8576h31.6928z m153.2928 150.7328h-113.536c0.5888 16.9984 5.1968 30.0288 14.4128 39.0912 9.216 9.0624 21.3248 14.1824 37.4528 14.1824 17.8688 0 34.56-5.6832 50.1248-17.024v24.9344c-14.3872 9.6512-32.8448 14.7456-56.4736 14.7456-23.6032 0-41.472-7.3728-54.7328-22.0928-13.2608-14.7456-19.584-34.56-19.584-60.6464 0-24.3712 6.912-44.1856 21.3248-60.0576 14.3872-15.872 32.256-23.808 53.5808-23.808s37.4528 6.8096 49.5616 19.84c12.1088 13.0304 17.8688 32.3072 17.8688 56.0896v14.7456z m-28.8256-22.6816c0-14.1568-3.456-25.4976-10.368-33.4336-6.912-7.936-16.7168-11.8784-28.8256-11.8784-11.52 0-21.2992 3.9424-29.3888 12.4672-8.064 8.4992-13.824 19.2512-15.5392 32.8448h84.1216z m225.8944 85.5808c-16.7168 8.4992-37.4528 13.0304-62.8224 13.0304-32.256 0-58.1888-10.1888-77.7728-30.592-19.6096-20.4032-29.3888-47.0528-29.3888-80.4864 0-35.6864 10.9312-64.5888 32.8448-86.6816 21.888-22.1184 49.5616-32.8704 82.9696-32.8704 21.888 0 39.7568 2.816 53.6064 9.0624v30.0288c-16.128-9.0624-34.0224-13.0304-53.6064-13.0304-25.344 0-46.08 8.4992-61.6448 24.9344-15.5648 16.4352-23.6288 39.0912-23.6288 66.8672 0 26.624 7.4752 47.616 22.4768 63.488 14.976 15.8464 33.9968 23.7824 58.1888 23.7824 22.4768 0 42.0608-5.12 58.7776-14.7456v27.2128z m178.0736 9.6256H2175.744v-91.2384c0-32.2816-12.1088-48.1536-36.3008-48.1536-12.1088 0-22.4768 4.5312-31.1296 14.1568-8.6272 9.6512-12.0832 20.992-12.0832 35.1488v90.112h-28.8256v-235.776h28.8256v102.5792h0.5632c12.1088-19.8144 29.952-30.0288 53.0176-30.0288 36.3008 0 54.7584 21.5296 54.7584 65.1776v98.048z m51.8656-148.48c16.128-9.6256 34.56-14.72 55.8848-14.72 39.168 0 58.7776 20.4032 58.7776 60.6464v102.5536h-28.2368v-24.3712h-0.5632c-10.9568 18.688-27.6736 28.3392-49.5616 28.3392-15.5648 0-28.2368-3.968-37.4528-12.4672-9.216-8.4992-13.824-19.84-13.824-33.9968 0-29.4656 17.8432-47.0272 53.5808-52.1216l47.8208-6.8096c0-26.0608-10.9568-39.0912-32.8448-39.0912-19.584 0-36.864 6.2208-53.0176 19.2512V775.168h-0.5632z m47.8208 73.1136c-13.2608 1.7152-22.4768 5.12-27.648 9.6256-5.1968 4.5568-7.5008 11.3408-7.5008 20.4032 0 7.3728 2.8672 13.6192 8.064 18.688 5.1712 5.12 12.672 7.3984 21.888 7.3984 12.672 0 23.04-4.5568 31.1296-13.056 8.064-8.4992 12.1088-19.2512 12.1088-32.2816v-15.3088l-38.0416 4.5312z m191.3088 73.6768c-6.3232 3.4048-14.4128 5.0944-25.344 5.0944-28.8256 0-43.2128-15.872-43.2128-47.616v-91.776h-27.6736v-23.2448h27.648v-38.528l28.8256-9.0624v47.0272h40.3456v23.2192H2455.808v86.7072c0 10.2144 1.7408 18.1504 5.1968 22.6816 3.456 4.5312 9.7792 6.784 17.8432 6.784 6.3488 0 12.1088-1.6896 16.7168-5.0944v23.808z m155.5968-81.6128v83.3024h-28.8256v-222.72h64.5632c24.192 0 43.2128 5.6832 57.0368 17.5872 13.824 11.904 20.1728 28.3392 20.1728 49.8688 0 22.0928-8.064 39.68-23.6288 53.248-15.5648 13.6192-35.7376 19.84-59.3664 19.2768h-29.952v-0.5632z m0-114.4576v88.96h27.0848c17.8688 0 31.6928-3.968 40.9088-11.904 9.216-7.936 13.824-19.2512 13.824-33.9968 0-28.9024-17.28-43.0592-51.8656-43.0592h-29.952z m144.0512 49.3056c16.128-9.6512 34.5856-14.7456 55.9104-14.7456 39.168 0 58.7776 20.4032 58.7776 60.6464v102.5536h-28.2368v-24.3712h-0.5888c-10.9312 18.688-27.648 28.3392-49.536 28.3392-15.5648 0-28.2368-3.968-37.4784-12.4672-9.216-8.4992-13.824-19.84-13.824-33.9968 0-29.4656 17.8688-47.0272 53.6064-52.1216l47.8208-6.8096c0-26.0608-10.9568-39.0912-32.8448-39.0912-19.6096 0-36.864 6.2208-53.0176 19.2512V775.168h-0.5888z m47.8464 73.088c-13.2608 1.7152-22.4768 5.12-27.648 9.6256-5.1968 4.5568-7.5008 11.3408-7.5008 20.4032 0 7.3728 2.8672 13.6192 8.064 18.688 5.1712 5.12 12.672 7.3984 21.888 7.3984 12.672 0 23.04-4.5568 31.1296-13.056 8.064-8.4992 12.0832-19.2512 12.0832-32.2816v-15.3088l-38.016 4.5312z m245.4784-83.8656l-73.1904 183.04c-13.824 33.9968-32.8448 50.9952-57.6 50.9952-6.912 0-13.2608-0.5632-18.4576-2.2784v-24.9344c5.76 2.2784 10.9568 3.4048 16.128 3.4048 13.2608 0 22.4768-7.3472 29.3888-22.656l12.672-28.9024-63.3856-158.6688h31.6928l42.0864 119.552 3.456 13.056h0.5632a152.064 152.064 0 0 1 3.456-13.056l44.3904-120.1152h28.8v0.5632z" fill="#393738" p-id="6600"></path><path d="M419.328 648.7808a34.56 34.56 0 0 1-17.28 4.0704 38.2208 38.2208 0 0 1-33.408-19.7376l-2.304-5.8112-104.832-231.7568a19.2512 19.2512 0 0 1 17.28-27.2896c4.0192 0 8.064 1.152 11.52 4.0448l123.264 88.32c9.216 5.7856 19.584 9.2672 31.6672 9.2672 6.912 0 13.824-1.152 19.584-3.4816l581.7856-261.376C942.336 81.3056 770.688 0 576 0 258.048 0 0 216.6528 0 483.84c0 145.7664 77.7728 277.0432 199.296 365.9008 9.8048 6.9888 16.128 18.5856 16.128 31.3856 0 4.0448-1.152 8.1152-2.304 12.1856-9.7792 36.608-25.344 94.6688-25.9072 97.5872-1.152 4.6336-2.8928 9.2928-2.8928 13.9264 0 10.4704 8.6272 19.1744 18.9952 19.1744 4.0448 0 7.5008-1.7408 10.9568-3.4816l126.72-72.0384a56.576 56.576 0 0 1 30.5152-8.704c5.7856 0 11.52 1.1776 16.7168 2.304a682.496 682.496 0 0 0 187.776 26.752c317.952 0 576-216.6528 576-483.84 0-80.7424-23.6032-157.4144-65.664-224.2048L423.3472 646.4512l-4.0192 2.3296z" fill="#00AC1C" p-id="6601"></path></svg>